<svg width="2189" height="558" viewBox="0 0 2189 558" fill="none" xmlns="http://www.w3.org/2000/svg">
<path fill-rule="evenodd" clip-rule="evenodd" d="M563.5 40.996L645.5 41.5L652.5 44.814C676.641 56.242 698.075 76.699 708.228 98C710.981 103.775 714.53 111.151 716.116 114.39C717.702 117.63 719 121.271 719 122.482C719 123.692 719.689 126.891 720.532 129.591C723.432 138.887 724.95 154.312 723.932 164.15C722.962 173.523 718.228 190.52 714.643 197.5C711.555 203.513 708.306 207.771 686.25 234.72C682.813 238.92 680 243.098 680 244.004C680 244.91 684.455 249.729 689.901 254.713C705.189 268.706 709.287 273.713 716.328 287C726.568 306.324 729.589 320.842 728.713 346.5C728.279 359.234 727.742 363.669 726.084 368.225C724.938 371.374 724 374.536 724 375.253C724 375.969 722.249 379.979 720.109 384.164C709.164 405.565 692.09 425.792 675.445 437.074C670.424 440.477 659.076 446.045 649.5 449.803C646.75 450.883 640.225 452.553 635 453.516C626.395 455.102 617.423 455.257 539.77 455.164C456.185 455.063 453.941 455.011 450.128 453.065C445.684 450.798 442.499 447.829 432.343 436.491C428.406 432.096 421.243 424.675 416.425 420C402.684 406.666 396.912 400.705 395.882 398.78C393.4 394.143 387.041 398.841 361 424.55C349.725 435.681 337.387 446.932 333.582 449.552L326.664 454.315L281.082 454.137C256.012 454.038 233.019 453.696 229.987 453.377C225.429 452.896 224.052 453.137 222.038 454.768C219.794 456.585 219.545 457.679 218.877 468.62C218.478 475.154 218.118 484.932 218.076 490.35C218 500.178 217.993 500.207 214.6 503.6C211.708 506.492 210.505 507 206.55 507C203.993 507 200.586 506.32 198.98 505.49C194.427 503.135 193.705 500.908 194.932 492.998C196.342 483.915 196.306 433.138 194.883 423.574C193.497 414.251 193.997 412.207 198.92 407.084C202.43 403.43 203.352 402.996 207.672 402.961C210.327 402.94 232.611 402.957 257.191 402.999L301.882 403.074L305.873 397.672C308.068 394.701 313.607 388.933 318.182 384.854C334.374 370.42 338.32 366.425 343.134 359.593C345.81 355.794 348 352.107 348 351.399C348 349.607 335.779 335.333 330.149 330.549C320.482 322.335 289.164 289.644 280.149 278.359C278.014 275.686 275.195 272.517 273.884 271.316L271.5 269.133L201.701 268.916C155.225 268.771 131.56 269.04 130.879 269.721C130.195 270.405 129.862 309.093 129.872 386.787L129.887 502.832L124.998 507.405C121.443 510.731 119.616 511.79 118.304 511.288C116.439 510.574 110.42 506.801 108.287 505.01C106.07 503.147 105.2 496.68 104.547 477.202C104.192 466.588 103.645 457.238 103.333 456.424C102.301 453.735 99.38 453.065 85.871 452.419C78.517 452.067 72.084 451.39 71.574 450.914C70.925 450.306 70.345 57.946 70.97 41.735C70.987 41.314 84.163 41.089 100.25 41.235L129.5 41.5L129.64 127.948C129.775 211.231 129.848 214.423 131.64 215.128C132.663 215.53 169.5 215.897 213.5 215.943C257.5 215.99 294.517 216.3 295.761 216.633C297.059 216.981 298.288 218.3 298.647 219.732C299.014 221.194 313.79 236.763 334.387 257.389C353.699 276.73 371.26 294.732 373.412 297.393C375.564 300.055 379.629 303.706 382.445 305.508C387.342 308.64 391.513 312.981 404.539 328.5C407.771 332.35 413.31 338.425 416.849 342C420.387 345.575 427.814 353.45 433.352 359.5C446.496 373.859 469.339 396.49 475.524 401.279C478.854 403.858 480.896 404.811 481.952 404.279C482.803 403.851 513.487 403.431 550.138 403.346C607.781 403.214 617.095 402.988 619.138 401.678C620.437 400.845 623.397 399.663 625.716 399.052C628.035 398.441 635.443 394.242 642.178 389.721C652.164 383.016 655.4 380.209 659.719 374.5C669.376 361.736 672.265 348.652 669.656 329.5C667.25 311.833 657.908 296.582 642.365 284.95C635.584 279.875 624.413 274 621.544 274C620.285 274 617.06 273.024 614.377 271.83C609.619 269.714 608.024 269.641 549.192 268.867L488.884 268.074L479.2 260.287C473.873 256.004 464.337 247.138 458.007 240.584C437.128 218.962 408.715 190.745 391.565 174.6C372.749 156.886 371.077 155.096 365.227 146.396C362.97 143.038 357.383 137.012 352.812 133.003C343.276 124.642 324.978 106.849 313.957 95.223C302.12 82.736 305.842 83.591 260.5 82.938C227.089 82.457 220.867 82.133 217.086 80.675C214.659 79.739 212.184 78.588 211.586 78.117C210.989 77.646 208.842 76.727 206.816 76.075C202.871 74.805 196.536 68.54 194.933 64.324C194.396 62.91 194.265 60.121 194.643 58.127C195.021 56.132 195.368 51.575 195.415 48L195.5 41.5L267.5 41.212L339.5 40.924L358.544 60.212C386.969 89.002 393.769 94.37 395.64 89.495C395.958 88.667 399.431 85.232 403.359 81.861C410.465 75.762 426.969 60.62 440.536 47.75L447.651 41L461.076 40.93C468.459 40.891 475.4 40.473 476.5 40C477.6 39.527 479.175 39.444 480 39.816C480.825 40.188 518.4 40.719 563.5 40.996ZM172.781 52.602C173.004 61.394 172.758 63.956 171.595 64.921C170.478 65.848 169.617 65.865 167.986 64.992C164.287 63.013 162.795 64.446 163.168 69.623C163.457 73.645 163.159 74.502 160.87 76.228C157.708 78.613 154.223 77.879 153.534 74.683C152.785 71.215 152.149 42.185 152.806 41.527C153.133 41.2 157.698 41.06 162.95 41.216L172.5 41.5L172.781 52.602ZM468.158 96C462.226 101.775 450.989 112.575 443.186 120C435.383 127.425 428.999 134.137 428.999 134.916C429 135.695 432.951 140.195 437.78 144.916C460.083 166.721 496.896 205.709 502.544 213.506L504.587 216.328L562.544 216.137L620.5 215.947L627.864 212.223C636.492 207.861 649.543 197.345 654.015 191.151C660.397 182.313 664 170.876 664 159.452C664 147.674 661.345 134.783 656.967 125.308C649.717 109.614 634.008 96.665 612.5 88.653L605.5 86.046L542.222 85.773L478.944 85.5L468.158 96ZM225.668 101.726C226.791 104.01 228.468 105.714 230 106.127C231.375 106.497 245.235 106.845 260.8 106.9C292.238 107.011 292.422 107.045 299.038 113.857C300.984 115.861 305.259 119.99 308.538 123.034C311.817 126.078 318.775 133.358 324 139.211C329.225 145.064 338.222 154.273 343.994 159.676C360.654 175.272 378.85 194.296 379.475 196.771C380.257 199.869 378.662 202.483 375.087 203.964C372.564 205.009 371.349 204.917 367.306 203.373C363.356 201.864 358.809 197.763 341.413 180.021C329.808 168.185 318.582 156.475 316.467 154C314.352 151.525 309.322 146.106 305.29 141.957C301.258 137.809 296.502 132.188 294.722 129.467C292.941 126.746 290.363 123.985 288.992 123.331C287.268 122.509 274.372 121.967 247.12 121.571L207.74 120.998L202.896 116.249C200.231 113.637 198.04 110.743 198.026 109.818C197.99 107.477 202.141 104.816 211.5 101.182C222.094 97.069 223.402 97.119 225.668 101.726ZM179.5 140.48C183.957 141.556 192.468 141.938 212.601 141.964C229.094 141.986 240.897 142.417 242.756 143.065C246.692 144.437 248.783 148.986 247.138 152.597C245.035 157.211 241.775 157.691 208.008 158.359C178.826 158.936 176.321 159.126 173.858 160.947C169.327 164.297 166.925 164.352 162 161.219C159.525 159.645 156.603 156.689 155.507 154.65C153.517 150.948 153.517 150.939 155.507 147.222C157.851 142.844 164.636 138.992 169.962 139.016C171.908 139.024 176.2 139.683 179.5 140.48ZM285.913 143.767C289.378 146.329 291.331 150.545 290.531 153.733C289.597 157.452 283.706 163 280.69 163C277.341 163 268.214 155.7 267.373 152.349C265.135 143.435 277.639 137.647 285.913 143.767ZM208.931 174.98C214.225 176.498 218 180.675 218 185.013C218 189.335 215.814 191.692 208.338 195.434C204.165 197.522 202.674 197.826 200.559 197.022C196.826 195.603 193.322 192.058 191.633 187.993C190.393 185.007 190.378 184.007 191.532 181.263C194.063 175.243 201.051 172.72 208.931 174.98ZM322.716 191.809C329.747 198.814 342.25 210.693 350.5 218.205C358.75 225.717 372.872 239.178 381.883 248.119C401.711 267.794 404.451 272.567 398.832 277.652C396.591 279.68 396.942 279.831 385.951 272.112C379.632 267.674 355.054 243.184 346.624 232.924C341.952 227.239 334.227 220.241 330.343 218.176C329.156 217.545 323.644 212.823 318.093 207.682C312.299 202.317 306.403 197.765 304.25 196.997C301.56 196.036 291.36 195.494 268.168 195.079C231.701 194.426 233.71 194.916 232.426 186.356C231.268 178.631 229.42 178.973 272.098 179.025L309.933 179.071L322.716 191.809ZM893.426 215.848C912.703 221.141 925.547 233.465 929.112 250.088C929.799 253.289 930.038 259.286 929.703 264.899C929.216 273.073 928.662 275.3 925.548 281.6C921.643 289.502 915.546 295.746 908.25 299.318C905.913 300.462 904.005 301.871 904.01 302.449C904.016 303.027 906.818 304.802 910.237 306.393C931.74 316.402 940.553 345.354 928.995 368.011C924.087 377.631 912.673 386.713 901 390.286C889.389 393.841 885.8 394.041 838.5 393.769L791.5 393.5L791.245 304.062C791.042 233.19 791.25 214.451 792.245 213.787C792.935 213.327 814.2 213.112 839.5 213.311C883.028 213.653 885.926 213.789 893.426 215.848ZM1059.5 215.375C1073.37 218.889 1083.39 225.208 1090.25 234.764C1096.16 242.996 1097.5 247.962 1097.48 261.5C1097.45 273.17 1097.36 273.692 1093.98 280.485C1090.12 288.224 1083.25 295.528 1076.4 299.164C1071.16 301.942 1070.87 303.413 1075.25 304.928C1080.77 306.838 1087.86 312.247 1092.38 318C1099.67 327.283 1101.99 334.116 1101.99 346.384C1102 359.311 1098.94 367.62 1090.95 376.369C1084.75 383.154 1076.41 388.252 1066.66 391.227C1059.79 393.325 1057.52 393.425 1009.76 393.757L960.021 394.103L959.761 304.501C959.59 245.756 959.844 214.551 960.5 213.886C961.157 213.221 977.109 212.998 1007 213.237C1046.46 213.553 1053.43 213.837 1059.5 215.375ZM1179.24 214.25C1180.13 214.938 1183.15 221.575 1185.96 229C1190.99 242.288 1195.37 253.572 1197.04 257.5C1197.51 258.6 1199.31 263.1 1201.05 267.5C1202.78 271.9 1206.4 280.9 1209.08 287.5C1211.77 294.1 1217.04 307.375 1220.79 317C1224.62 326.816 1228.17 334.5 1228.88 334.5C1230.14 334.5 1230.99 332.71 1236.96 317.5C1238.69 313.1 1240.51 308.6 1241 307.5C1242.12 305.005 1250.23 284.101 1261 256C1265.53 244.175 1269.84 233.15 1270.57 231.5C1271.31 229.85 1272.86 226.025 1274.02 223C1278.21 212.108 1275.6 212.998 1303.27 213.015C1316.6 213.024 1328.07 213.389 1328.76 213.828C1329.75 214.459 1329.96 233.173 1329.76 304.062L1329.5 393.5L1307.75 393.77C1295.79 393.918 1286 393.693 1285.99 393.27C1285.99 392.846 1285.96 369.895 1285.92 342.267C1285.89 312.272 1285.49 291.802 1284.93 291.457C1284.42 291.14 1283.5 292.144 1282.9 293.69C1281.14 298.193 1276.04 312.023 1273.93 318C1272.87 321.025 1271.58 324.4 1271.06 325.5C1270.55 326.6 1267.39 335.375 1264.04 345C1260.68 354.625 1257.3 364.075 1256.52 366C1255.74 367.925 1253.45 374.225 1251.43 380C1249.41 385.775 1247.35 391.288 1246.84 392.25C1246.03 393.811 1244.11 394 1229.09 394C1211.02 394 1211.18 394.045 1209.24 388.5C1208.66 386.85 1206.78 381.675 1205.05 377C1203.33 372.325 1201.21 366.475 1200.36 364C1199.5 361.525 1198.21 358.15 1197.5 356.5C1196.02 353.109 1194.37 348.534 1183.39 317.5C1179.11 305.4 1174.91 294.394 1174.05 293.043C1172.63 290.799 1172.46 295.033 1172 342.043L1171.5 393.5H1149.5H1127.5L1127.22 305.5C1127.07 257.1 1127.2 216.488 1127.49 215.25L1128.04 213H1152.83C1171.13 213 1178.04 213.327 1179.24 214.25ZM404.208 223.703C406.294 225.74 408 228.352 408 229.508C408 232.403 401.757 239 399.016 239C395.972 239 391.206 233.616 390.387 229.252C389.788 226.056 390.069 225.327 392.871 222.824C397.08 219.063 399.662 219.264 404.208 223.703ZM431.873 252.407C434.425 254.28 440.53 260.243 445.44 265.657C455.802 277.083 468.198 289.428 471.448 291.558C473.285 292.761 480.312 293.16 508.946 293.683C537.267 294.2 544.46 294.603 545.592 295.735C547.602 297.745 547.331 303.369 545.091 306.139C543.3 308.353 542.409 308.52 530.801 308.827C514.247 309.264 470.475 307.332 465.645 305.951C461.045 304.635 454.754 299.044 447.778 290.07C444.969 286.456 438.518 279.225 433.443 274C419.251 259.39 416.282 253.096 422.228 250.23C425.789 248.514 426.917 248.769 431.873 252.407ZM836.444 250.285C836.173 250.992 836.074 259.429 836.225 269.035L836.5 286.5L853.439 286.775C869.881 287.042 870.531 286.975 875.637 284.477C881.744 281.489 884.712 277.379 885.637 270.63C886.853 261.763 881.756 253.589 873.11 250.539C867.331 248.5 837.209 248.291 836.444 250.285ZM1004.44 250.285C1004.17 250.992 1004.07 259.429 1004.22 269.035L1004.5 286.5L1021 286.783C1034.12 287.007 1038.35 286.742 1041.65 285.489C1049.76 282.407 1053 277.411 1053 268C1053 258.801 1049.69 253.927 1041.23 250.652C1035.67 248.503 1005.24 248.199 1004.44 250.285ZM423 290C425.158 292.158 425.699 297.826 424.041 300.923C422.604 303.609 412.378 304.652 409.857 302.371C407.248 300.009 407.45 294.847 410.25 292.311C415.476 287.578 419.795 286.795 423 290ZM578.661 296.935C582.334 299.174 583.56 302.085 582.032 304.939C579.676 309.342 572.927 310.054 568.816 306.333C564.942 302.827 568.008 294.995 573.25 295.004C574.487 295.006 576.922 295.875 578.661 296.935ZM445.055 316.046C447.713 318.272 454.976 325.79 461.194 332.753C488.167 362.958 490.411 364.935 495.53 362.989C497.011 362.425 509.797 362 525.244 362H552.358L555.564 358.5C558.07 355.764 559.542 355 562.308 355C565.343 355 566.477 355.745 570.297 360.25C575.601 366.505 576.5 368.955 575.075 373.274C573.851 376.981 571.967 378.393 566.156 379.958C562.538 380.932 561.536 380.793 557.773 378.795C553.585 376.57 552.853 376.525 521 376.513C491.384 376.501 488.202 376.337 485.137 374.666C482.052 372.983 466.526 359.416 458.039 350.985C446.871 339.892 430 319.955 430 317.852C430 316.015 435.323 312 437.757 312C439.175 312 442.276 313.719 445.055 316.046ZM837.226 320.778C836.256 321.44 836.018 325.926 836.226 339.574L836.5 357.5L855.488 357.773C875.077 358.055 877.639 357.681 883.064 353.754C887.304 350.686 889.2 346.449 889.2 340.048C889.2 333.742 888.17 331.024 884.128 326.668C879.285 321.45 876.11 320.717 856.5 320.296C846.6 320.083 837.927 320.3 837.226 320.778ZM1005.23 320.839C1004.26 321.456 1004.02 325.901 1004.23 339.574L1004.5 357.5L1022.5 357.791C1042.94 358.122 1047.3 357.351 1052.27 352.527C1056.59 348.327 1058.27 342.775 1057.1 336.526C1055.58 328.348 1050 323.023 1040.91 321.075C1035.1 319.828 1007.11 319.643 1005.23 320.839ZM619.684 322.943C626.295 325.945 628.335 331.652 625.914 340.373C624.584 345.162 621.195 348.405 615.487 350.35C611.688 351.644 610.504 351.655 606.444 350.433C603.875 349.66 599.953 347.384 597.73 345.375L593.687 341.723L585.094 342.238C580.367 342.522 566.759 342.472 554.853 342.127C535.491 341.566 532.984 341.299 531.103 339.595C528.252 337.013 528.24 331.477 531.082 329.956C534.391 328.185 581.237 327.085 587.853 328.623C593.853 330.018 595.478 329.628 602.051 325.212C608.985 320.554 613.221 320.009 619.684 322.943ZM511.089 328.281C517.801 332.804 517.342 339.255 510.042 342.979C504.886 345.609 502.056 344.911 497.524 339.895C493.107 335.006 493.038 332.289 497.241 328.777C501.378 325.32 506.427 325.14 511.089 328.281ZM168.723 404.973C170.496 406.054 172.205 407.971 172.522 409.233C173.421 412.813 172.591 500.286 171.64 502.241C169.662 506.308 158.586 506.923 154.03 503.218C151.943 501.522 151.914 500.94 151.689 457.5C151.564 433.3 151.108 412.776 150.677 411.89C149.377 409.219 154.374 404.19 158.79 403.726C160.831 403.512 163.175 403.262 164 403.172C164.825 403.081 166.95 403.892 168.723 404.973Z" fill="white"/>
<path d="M1721.81 293.236C1723.04 293.486 1723.2 307.176 1723 398.25C1723 398.663 1645.15 399 1550 399H1377V346.006V293.012L1453.75 292.756C1536.78 292.479 1719.68 292.806 1721.81 293.236Z" fill="#f0a050"/>
<path fill-rule="evenodd" clip-rule="evenodd" d="M1406.25 305.655C1404.59 306.333 1404.55 319.151 1406.2 320.8C1406.95 321.549 1410.67 322 1416.09 322C1422.8 322 1424.91 322.335 1425.35 323.461C1425.66 324.265 1425.91 337.771 1425.9 353.475C1425.9 369.179 1426.17 382.471 1426.51 383.014C1427.46 384.557 1442.54 384.255 1443.86 382.666C1444.6 381.774 1445.06 371.581 1445.23 351.916L1445.5 322.5L1455.5 322L1465.5 321.5V313.5V305.5L1436.5 305.321C1420.55 305.223 1406.94 305.373 1406.25 305.655ZM1477.2 306.2C1475.48 307.922 1475.48 381.078 1477.2 382.8C1478.95 384.547 1522.38 384.501 1523.7 382.75C1524.98 381.062 1525.18 372.606 1524.01 369.537C1523.08 367.092 1522.89 367.055 1509.79 366.779L1496.5 366.5V359V351.5L1506.5 351.252C1521.71 350.875 1521.15 351.193 1520.8 343.22L1520.5 336.5L1508.5 336L1496.5 335.5V329V322.5L1509.73 322.221C1524.86 321.902 1525.13 321.744 1524.87 313.297C1524.6 304.566 1525.87 305 1500.67 305C1484.68 305 1478.06 305.339 1477.2 306.2ZM1561.5 306.424C1547.82 309.854 1539.79 317.014 1534.94 330.098C1527.7 349.612 1535.76 371.411 1553.37 379.935C1567.45 386.755 1587.16 384.401 1598.71 374.519C1602.84 370.985 1609.08 360.389 1608.29 358.25C1607.97 357.374 1605.08 357 1598.63 357H1589.43L1584.71 361.455C1574.95 370.676 1560.56 368.274 1554.5 356.411C1551.65 350.827 1551.68 338.055 1554.57 332.553C1557.5 326.961 1562.61 323.153 1568.19 322.387C1575.62 321.369 1579.5 322.591 1584.6 327.547L1589.18 332H1598.59C1607.75 332 1608 331.938 1608 329.696C1608 326.825 1602.99 318.811 1598.72 314.839C1589.83 306.577 1574.61 303.137 1561.5 306.424ZM1622.2 306.2C1620.48 307.922 1620.48 381.078 1622.2 382.8C1623.45 384.049 1636.53 384.499 1639.42 383.393C1640.76 382.879 1641 380.613 1641 368.593C1641 358.887 1641.38 354.021 1642.2 353.2C1644.08 351.321 1667.89 351.544 1668.62 353.448C1668.92 354.244 1669.25 360.882 1669.34 368.198C1669.43 375.514 1669.86 382.063 1670.31 382.75C1671.24 384.194 1685.67 384.493 1687.85 383.113C1689.77 381.897 1689.69 307.053 1687.77 305.834C1687.07 305.392 1683.03 305.024 1678.79 305.015C1672.44 305.003 1670.91 305.311 1670.17 306.75C1669.67 307.712 1669.17 314.322 1669.07 321.437C1668.97 328.552 1668.66 334.74 1668.39 335.187C1668.11 335.634 1662.11 336 1655.05 336C1644.27 336 1642.12 335.747 1641.61 334.418C1641.27 333.548 1641 326.846 1641 319.525C1641 308.31 1640.75 306.118 1639.42 305.607C1636.53 304.501 1623.45 304.951 1622.2 306.2Z" fill="black"/>
</svg>
